<mxfile host="app.diagrams.net" modified="2023-11-09T10:07:50.776Z" agent="Mozilla/5.0 (Windows NT 10.0; Win64; x64) AppleWebKit/537.36 (KHTML, like Gecko) Chrome/116.0.5845.837 YaBrowser/23.9.4.837 Yowser/2.5 Safari/537.36" version="21.8.2" etag="mEvveMy_marhCXOH_6fY" type="github">
  <diagram name="Страница — 1" id="zUxaJNWLK6kcI2vf2pRF">
    <mxGraphModel>
      <root>
        <mxCell id="0" />
        <mxCell id="1" parent="0" />
      </root>
    </mxGraphModel>
  </diagram>
</mxfile>
